<?xml version="1.0" encoding="utf-8"?>
<!-- Generator: Adobe Illustrator 19.0.0, SVG Export Plug-In . SVG Version: 6.00 Build 0)  -->
<svg version="1.1"
	 id="svg4451" inkscape:version="0.91 r13725" sodipodi:docname="881903.svg" xmlns:rdf="http://www.w3.org/1999/02/22-rdf-syntax-ns#" xmlns:dc="http://purl.org/dc/elements/1.1/" xmlns:sodipodi="http://sodipodi.sourceforge.net/DTD/sodipodi-0.dtd" xmlns:svg="http://www.w3.org/2000/svg" xmlns:inkscape="http://www.inkscape.org/namespaces/inkscape" xmlns:cc="http://creativecommons.org/ns#"
	 xmlns="http://www.w3.org/2000/svg" xmlns:xlink="http://www.w3.org/1999/xlink" x="0px" y="0px" viewBox="-108 148.3 226.8 85.2"
	 style="enable-background:new -108 148.3 226.8 85.2;" xml:space="preserve">
<style type="text/css">
	.st0{fill:url(#XMLID_2_);}
	.st1{fill:#8AE6FF;}
	.st2{fill:#FFFFFF;}
	.st3{fill:#00A1E4;}
	.st4{fill:#FFF200;}
</style>
<sodipodi:namedview  id="base" inkscape:window-width="1920" inkscape:window-height="1017" fit-margin-bottom="0" inkscape:pageopacity="0.0" inkscape:current-layer="layer1" fit-margin-right="0" inkscape:document-units="px" inkscape:window-x="-8" inkscape:pageshadow="2" inkscape:window-y="-8" inkscape:window-maximized="1" inkscape:zoom="1.4" inkscape:cx="126.60466" pagecolor="#ffffff" bordercolor="#666666" borderopacity="1.0" inkscape:cy="145.70435" fit-margin-top="0" units="px" showgrid="false" fit-margin-left="0">
	</sodipodi:namedview>
<radialGradient id="XMLID_2_" cx="28.2901" cy="409.1229" r="100.9042" gradientTransform="matrix(0.8332 0 0 -0.4999 -18.1845 395.4411)" gradientUnits="userSpaceOnUse">
	<stop  offset="0.2193" style="stop-color:#E4BFFF;stop-opacity:0"/>
	<stop  offset="1" style="stop-color:#003AAA"/>
</radialGradient>
<path id="XMLID_63_" class="st0" d="M109.3,233.4H-98.6c-5.2,0-9.4-5.1-9.4-11.3v-62.4c0-6.3,4.2-11.3,9.4-11.3h207.9
	c5.2,0,9.4,5.1,9.4,11.3v62.4C118.8,228.4,114.5,233.4,109.3,233.4z"/>
<path id="XMLID_62_" class="st1" d="M104,228.4H-93.2c-4.7,0-8.6-4.7-8.6-10.4v-54.2c0-5.7,3.8-10.4,8.6-10.4H104
	c4.7,0,8.6,4.7,8.6,10.4V218C112.5,223.7,108.7,228.4,104,228.4z"/>
<g>
	<path id="path4147" inkscape:connector-curvature="0" d="M88.8,182.8H76.3c-0.6,0-1.1,0.5-1.1,1.1v12.3c0,0.6,0.5,1.1,1.1,1.1h12.6
		c0.6,0,1.1-0.5,1.1-1.1v-12.3C89.9,183.2,89.4,182.8,88.8,182.8 M86.3,194.5c0,0.6-0.5,1.1-1.1,1.1h-5.3c-0.6,0-1.1-0.5-1.1-1.1
		v-8.9c0-0.6,0.5-1.1,1.1-1.1h5.3c0.6,0,1.1,0.5,1.1,1.1V194.5z"/>
	<path id="path4149" inkscape:connector-curvature="0" d="M107.3,182.8h-0.8h-0.6h-5h-1.5h-0.2h-0.7h-4.1h-0.4h-1
		c-0.6,0-1.1,0.5-1.1,1.1v12.3c0,0.6,0.5,1.1,1.1,1.1h1.4c0.6,0,1.1-0.5,1.1-1.1v-11.7h2c0.4,0,0.8,0.4,0.8,0.9v10.8
		c0,0.6,0.5,1.1,1.1,1.1h1.5c0.6,0,1.1-0.5,1.1-1.1v-11.7h2.1c0.4,0,0.7,0.4,0.8,0.8v10.9c0,0.6,0.5,1.1,1.1,1.1h1.4
		c0.6,0,1.1-0.5,1.1-1.1v-12.3C108.3,183.2,107.9,182.8,107.3,182.8"/>
	<path id="path4151" inkscape:connector-curvature="0" d="M63.3,190v-4.7c0-0.5,0.5-0.8,1.1-0.8H73c0.6,0,1.1-0.4,1.1-0.9
		c0-0.5-0.5-0.8-1.1-0.8H60.5c-0.6,0-1.1,0.4-1.1,0.8v5.6v1.7v5.6c0,0.5,0.5,0.8,1.1,0.8H73c0.6,0,1.1-0.4,1.1-0.8
		c0-0.4-0.5-0.9-1.1-0.9h-8.6c-0.6,0-1.1-0.4-1.1-0.8V190L63.3,190z"/>
	<path id="path4153" inkscape:connector-curvature="0" d="M56.8,194.3h-1.1c-0.6,0-1.1,0.5-1.1,1.1v0.8c0,0.6,0.5,1.1,1.1,1.1h1.1
		c0.6,0,1.1-0.5,1.1-1.1v-0.8C57.9,194.8,57.4,194.3,56.8,194.3"/>
	<path id="path4155" inkscape:connector-curvature="0" d="M36.2,182.8H23.6c-0.6,0-1.1,0.5-1.1,1.1v12.3c0,0.6,0.5,1.1,1.1,1.1h12.6
		c0.6,0,1.1-0.5,1.1-1.1v-12.3C37.3,183.2,36.8,182.8,36.2,182.8 M33.6,194.4c0,0.6-0.5,1.1-1.1,1.1h-5.3c-0.6,0-1.1-0.5-1.1-1.1
		v-8.9c0-0.6,0.5-1.1,1.1-1.1h5.3c0.6,0,1.1,0.5,1.1,1.1V194.4z"/>
	<path id="path4157" inkscape:connector-curvature="0" d="M19.6,182.7H7c-0.6,0-1.1,0.5-1.1,1.1v5.9c0,0.6,0.5,1.1,1.1,1.1h9.7v3.9
		c0,0.5-0.5,0.8-1.1,0.8H7.1c-0.6,0-1.1,0.5-1.1,0.9c0,0.5,0.5,0.8,1.1,0.8h12.5c0.6,0,1.1-0.4,1.1-0.8v-6.7v-0.6v-5.3
		C20.7,183.2,20.2,182.7,19.6,182.7 M16.8,188c0,0.6-0.5,1.1-1.1,1.1h-5.3c-0.6,0-1.1-0.5-1.1-1.1v-2.5c0-0.6,0.5-1.1,1.1-1.1h5.3
		c0.6,0,1.1,0.5,1.1,1.1V188z"/>
	<path id="path4159" inkscape:connector-curvature="0" d="M-3.7,182.7h-12.5c-0.6,0-1.1,0.5-1.1,1.1v5.2c0,0.5,0.3,1,0.8,1.1
		c-0.5,0.1-0.8,0.5-0.8,1.1v5.1c0,0.6,0.5,1.1,1.1,1.1h12.5c0.6,0,1.1-0.5,1.1-1.1v-5.1c0-0.5-0.4-1-0.8-1.1
		c0.5-0.1,0.8-0.5,0.8-1.1v-5.2C-2.6,183.2-3.1,182.7-3.7,182.7 M-6.2,194.5c0,0.6-0.5,1.1-1.1,1.1h-5.3c-0.6,0-1.1-0.5-1.1-1.1
		v-2.5c0-0.6,0.5-1.1,1.1-1.1h5.3c0.6,0,1.1,0.5,1.1,1.1V194.5z M-6.2,188c0,0.6-0.5,1.1-1.1,1.1h-5.3c-0.6,0-1.1-0.5-1.1-1.1v-2.5
		c0-0.6,0.5-1.1,1.1-1.1h5.3c0.6,0,1.1,0.5,1.1,1.1V188z"/>
	<path id="path4161" inkscape:connector-curvature="0" d="M3.1,182.8H0.4c-0.6,0-1.1,0.5-1.1,1.1v12.3c0,0.6,0.5,1.1,1.1,1.1h2.8
		c0.6,0,1.1-0.5,1.1-1.1v-12.3C4.2,183.2,3.7,182.8,3.1,182.8"/>
	<path id="path4163" inkscape:connector-curvature="0" d="M-20.1,182.7h-12.5c-0.6,0-1.1,0.5-1.1,1.1v5.2c0,0.5,0.3,1,0.8,1.1
		c-0.5,0.1-0.8,0.5-0.8,1.1v5.1c0,0.6,0.5,1.1,1.1,1.1h12.5c0.6,0,1.1-0.5,1.1-1.1v-5.1c0-0.5-0.4-1-0.9-1.1
		c0.5-0.1,0.9-0.5,0.9-1.1v-5.2C-19,183.2-19.5,182.7-20.1,182.7 M-22.7,194.5c0,0.6-0.5,1.1-1.1,1.1H-29c-0.6,0-1.1-0.5-1.1-1.1
		v-2.5c0-0.6,0.5-1.1,1.1-1.1h5.3c0.6,0,1.1,0.5,1.1,1.1V194.5z M-22.7,188c0,0.6-0.5,1.1-1.1,1.1H-29c-0.6,0-1.1-0.5-1.1-1.1v-2.5
		c0-0.6,0.5-1.1,1.1-1.1h5.3c0.6,0,1.1,0.5,1.1,1.1V188z"/>
	<path id="path4165" inkscape:connector-curvature="0" d="M51.9,182.7H39.5c-0.6,0-1.1,0.4-1.1,0.8c0,0.5,0.5,0.9,1.1,0.9h8.6
		c0.6,0,1.1,0.4,1.1,0.8v0.8v2.2c0,0.4-0.5,0.8-1.1,0.8h-8.6c-0.6,0-1.1,0.5-1.1,0.9c0,0.4,0.5,0.8,1.1,0.8h9.7v3.9
		c0,0.5-0.5,0.8-1.1,0.8h-8.6c-0.6,0-1.1,0.5-1.1,0.9c0,0.5,0.5,0.8,1.1,0.8h12.5c0.6,0,1.1-0.4,1.1-0.8v-5.6V190v-0.9v-3.9v-1.7
		C53.1,183.1,52.6,182.7,51.9,182.7"/>
</g>
<g id="g5143" transform="matrix(3.7544454,0,0,3.7544454,-108.76099,-721.38753)">
	<rect id="rect4167" x="3.9" y="235.4" class="st2" width="14.8" height="14.6"/>
	<rect id="rect4169" x="4.6" y="243" class="st3" width="6.5" height="6.5"/>
	<rect id="rect4171" x="4.6" y="236" class="st3" width="6.5" height="6.5"/>
	<rect id="rect4173" x="11.6" y="243" class="st3" width="6.5" height="6.5"/>
	<rect id="rect4175" x="11.6" y="236" class="st3" width="6.5" height="6.5"/>
	<path id="path4177" inkscape:connector-curvature="0" class="st4" d="M13.2,248.3h-0.3c-0.2,0-0.3,0.1-0.3,0.3v0.2
		c0,0.2,0.1,0.3,0.3,0.3h0.3c0.1,0,0.3-0.1,0.3-0.3v-0.2C13.4,248.4,13.3,248.3,13.2,248.3"/>
	<path id="path4179" inkscape:connector-curvature="0" class="st4" d="M16.7,248.3h-0.3c-0.2,0-0.3,0.1-0.3,0.3v0.2
		c0,0.2,0.1,0.3,0.3,0.3h0.3c0.1,0,0.3-0.1,0.3-0.3v-0.2C17,248.4,16.9,248.3,16.7,248.3"/>
	<path id="path4181" inkscape:connector-curvature="0" class="st4" d="M17,244.3c0.1,0,0.3-0.1,0.3-0.3v-0.4c0-0.2-0.1-0.3-0.3-0.3
		h-0.3c-0.1,0-0.3,0.1-0.3,0.3v0.4c0,0.2,0.1,0.3,0.3,0.3H17z"/>
	<path id="path4183" inkscape:connector-curvature="0" class="st4" d="M12.9,244.3c0.1,0,0.3-0.1,0.3-0.3v-0.4
		c0-0.2-0.1-0.3-0.3-0.3h-0.3c-0.2,0-0.3,0.1-0.3,0.3v0.4c0,0.2,0.1,0.3,0.3,0.3H12.9z"/>
	<path id="path4185" inkscape:connector-curvature="0" class="st4" d="M17.4,245c0.2,0,0.3-0.1,0.3-0.2c0-0.1-0.1-0.2-0.3-0.2H16v-1
		c0-0.1-0.1-0.3-0.3-0.3h-0.3c-0.1,0-0.3,0.1-0.3,0.3v1h-0.7v-1c0-0.1-0.1-0.3-0.3-0.3h-0.3c-0.1,0-0.3,0.1-0.3,0.3v1h-1.4
		c-0.1,0-0.3,0.1-0.3,0.2c0,0.1,0.1,0.2,0.3,0.2h0.6v0.8h-0.6c-0.1,0-0.3,0.1-0.3,0.2c0,0.1,0.1,0.2,0.3,0.2h1.9v0.6h-1.9
		c-0.1,0-0.3,0.1-0.3,0.2c0,0.1,0.1,0.2,0.3,0.2h1.9v0.6h-1.9c-0.1,0-0.3,0.1-0.3,0.2c0,0.1,0.1,0.2,0.3,0.2h1.9v0.9
		c0,0.2,0.1,0.3,0.3,0.3h0.7c0.1,0,0.3-0.1,0.3-0.3v-0.9h1.9c0.2,0,0.3-0.1,0.3-0.2c0-0.1-0.1-0.2-0.3-0.2h-1.9V247h1.9
		c0.2,0,0.3-0.1,0.3-0.2c0-0.1-0.1-0.2-0.3-0.2h-1.9v-0.6h1.9c0.2,0,0.3-0.1,0.3-0.2c0-0.1-0.1-0.2-0.3-0.2h-0.6V245H17.4z
		 M15.8,245.8h-1.9V245h1.9V245.8z"/>
	<path id="path4187" inkscape:connector-curvature="0" class="st4" d="M10.5,246.6H5.2c-0.1,0-0.3,0.1-0.3,0.3v2
		c0,0.2,0.1,0.3,0.3,0.3h5.2c0.2,0,0.3-0.1,0.3-0.3v-2C10.8,246.7,10.6,246.6,10.5,246.6 M9.9,248.4c0,0.2-0.1,0.3-0.3,0.3H6.1
		c-0.2,0-0.3-0.1-0.3-0.3v-1.1c0-0.2,0.1-0.3,0.3-0.3h3.5c0.1,0,0.3,0.1,0.3,0.3L9.9,248.4L9.9,248.4z"/>
	<path id="path4189" inkscape:connector-curvature="0" class="st4" d="M6.2,244.3h1.9c0.1,0,0.3-0.1,0.3-0.3v-0.4
		c0-0.1-0.1-0.3-0.3-0.3H7.8c-0.1,0-0.2,0.1-0.2,0.3c0,0.2-0.1,0.3-0.3,0.3H5.3c-0.1,0-0.3,0.1-0.3,0.3v1.7c0,0.2,0.1,0.3,0.3,0.3
		h5.2c0.2,0,0.3-0.1,0.3-0.3v-1.7c0-0.1-0.1-0.3-0.3-0.3H9.2c-0.1,0-0.3,0.1-0.3,0.2c0,0.1,0.1,0.2,0.3,0.2h0.4
		c0.1,0,0.3,0.1,0.3,0.3v0.8c0,0.1-0.1,0.3-0.3,0.3H6.2c-0.1,0-0.3-0.1-0.3-0.3v-0.8C5.9,244.4,6,244.3,6.2,244.3"/>
	<path id="path4191" inkscape:connector-curvature="0" class="st4" d="M10.5,239.2H5.2c-0.1,0-0.3,0.1-0.3,0.3v1.6
		c0,0.2,0.1,0.3,0.3,0.3h2.1l0,0.6c0,0.1,0.1,0.2,0.3,0.2h2.8c0.2,0,0.3-0.1,0.3-0.2c0-0.1-0.1-0.2-0.3-0.2H8.6
		c-0.1,0-0.3-0.1-0.3-0.2v-0.2h2.1c0.2,0,0.3-0.1,0.3-0.3v-1.6C10.8,239.4,10.6,239.2,10.5,239.2 M7.1,240.9h-1
		c-0.1,0-0.2-0.1-0.2-0.2c0-0.1,0.1-0.2,0.2-0.2h1c0.1,0,0.2,0.1,0.2,0.2C7.3,240.8,7.2,240.9,7.1,240.9 M7.1,240h-1
		c-0.1,0-0.2-0.1-0.2-0.2c0-0.1,0.1-0.2,0.2-0.2h1c0.1,0,0.2,0.1,0.2,0.2C7.3,240,7.2,240,7.1,240 M9.7,240.9h-1
		c-0.1,0-0.2-0.1-0.2-0.2c0-0.1,0.1-0.2,0.2-0.2h1c0.1,0,0.2,0.1,0.2,0.2C9.8,240.8,9.8,240.9,9.7,240.9 M9.7,240h-1
		c-0.1,0-0.2-0.1-0.2-0.2c0-0.1,0.1-0.2,0.2-0.2h1c0.1,0,0.2,0.1,0.2,0.2C9.8,240,9.8,240,9.7,240"/>
	<path id="path4193" inkscape:connector-curvature="0" class="st4" d="M5.3,239h0.3c0.1,0,0.3-0.1,0.3-0.3v-1c0-0.2,0.1-0.3,0.3-0.3
		h1.2v1.2c0,0.2,0.1,0.3,0.3,0.3h0.4c0.1,0,0.3-0.1,0.3-0.3v-1.2h1.2c0.2,0,0.3,0.1,0.3,0.3v1c0,0.1,0.1,0.3,0.3,0.3h0.3
		c0.1,0,0.3-0.1,0.3-0.3v-1.4c0-0.2-0.1-0.3-0.3-0.3H8.4v-0.2h2.1c0.1,0,0.3-0.1,0.3-0.2c0-0.1-0.1-0.2-0.3-0.2H5.3
		c-0.1,0-0.3,0.1-0.3,0.2c0,0.1,0.1,0.2,0.3,0.2h2.1v0.2H5.3c-0.1,0-0.3,0.1-0.3,0.3v1.4C5,238.8,5.1,239,5.3,239"/>
	<path id="path4195" inkscape:connector-curvature="0" class="st4" d="M9.3,238.5H8.9c-0.1,0-0.2,0.1-0.2,0.2c0,0.1,0.1,0.2,0.2,0.2
		h0.3c0.1,0,0.2-0.1,0.2-0.2C9.4,238.6,9.4,238.5,9.3,238.5"/>
	<path id="path4197" inkscape:connector-curvature="0" class="st4" d="M9.3,237.8H8.9c-0.1,0-0.2,0.1-0.2,0.2c0,0.1,0.1,0.2,0.2,0.2
		h0.3c0.1,0,0.2-0.1,0.2-0.2C9.4,237.9,9.4,237.8,9.3,237.8"/>
	<path id="path4199" inkscape:connector-curvature="0" class="st4" d="M6.8,238.5H6.5c-0.1,0-0.2,0.1-0.2,0.2c0,0.1,0.1,0.2,0.2,0.2
		h0.3c0.1,0,0.2-0.1,0.2-0.2C7,238.6,6.9,238.5,6.8,238.5"/>
	<path id="path4201" inkscape:connector-curvature="0" class="st4" d="M6.8,237.8H6.5c-0.1,0-0.2,0.1-0.2,0.2c0,0.1,0.1,0.2,0.2,0.2
		h0.3c0.1,0,0.2-0.1,0.2-0.2C7,237.9,6.9,237.8,6.8,237.8"/>
	<path id="path4203" inkscape:connector-curvature="0" class="st4" d="M12.6,236.8h4.5c0.2,0,0.3-0.1,0.3-0.2c0-0.1-0.1-0.2-0.3-0.2
		h-4.5c-0.2,0-0.3,0.1-0.3,0.2C12.3,236.7,12.4,236.8,12.6,236.8"/>
	<path id="path4205" inkscape:connector-curvature="0" class="st4" d="M17.4,238h-1.3v-0.5h1.3c0.1,0,0.3-0.1,0.3-0.2
		c0-0.1-0.1-0.2-0.3-0.2h-5.1c-0.2,0-0.3,0.1-0.3,0.2c0,0.1,0.1,0.2,0.3,0.2h1.3v0.5h-1.3c-0.1,0-0.3,0.1-0.3,0.3v3.6
		c0,0.2,0.1,0.3,0.3,0.3h0.4c0.2,0,0.3-0.1,0.3-0.3v-2.4h1.3c0.2,0,0.3-0.1,0.3-0.3v-0.8h0.7v0.8c0,0.2,0.1,0.3,0.3,0.3h1.3v2.4
		c0,0.2,0.1,0.3,0.3,0.3h0.4c0.1,0,0.3-0.1,0.3-0.3v-3.6C17.7,238.1,17.6,238,17.4,238 M13.5,238.8c0,0.2-0.1,0.3-0.3,0.3h-0.4v-0.4
		c0-0.2,0.1-0.3,0.3-0.3h0.4L13.5,238.8L13.5,238.8z M15.2,238h-0.7v-0.5h0.7V238z M16.8,239.1h-0.4c-0.1,0-0.3-0.1-0.3-0.3v-0.4
		h0.4c0.1,0,0.3,0.1,0.3,0.3V239.1z"/>
	<path id="path4207" inkscape:connector-curvature="0" class="st4" d="M16,241.9c0.1,0,0.3-0.1,0.3-0.3v-1.5c0-0.2-0.1-0.3-0.3-0.3
		h-2.4c-0.2,0-0.3,0.1-0.3,0.3v1.5c0,0.1,0.1,0.3,0.3,0.3H16z M14.2,240.6c0-0.2,0.1-0.3,0.3-0.3h0.7c0.1,0,0.3,0.1,0.3,0.3v0.5
		c0,0.2-0.1,0.3-0.3,0.3h-0.7c-0.1,0-0.3-0.1-0.3-0.3V240.6z"/>
</g>
</svg>
