<?xml version="1.0" encoding="utf-8"?>
<!-- Generator: Adobe Illustrator 19.0.0, SVG Export Plug-In . SVG Version: 6.00 Build 0)  -->
<svg version="1.1"
	 id="svg4451" inkscape:version="0.91 r13725" sodipodi:docname="881903.svg" xmlns:rdf="http://www.w3.org/1999/02/22-rdf-syntax-ns#" xmlns:dc="http://purl.org/dc/elements/1.1/" xmlns:sodipodi="http://sodipodi.sourceforge.net/DTD/sodipodi-0.dtd" xmlns:svg="http://www.w3.org/2000/svg" xmlns:inkscape="http://www.inkscape.org/namespaces/inkscape" xmlns:cc="http://creativecommons.org/ns#"
	 xmlns="http://www.w3.org/2000/svg" xmlns:xlink="http://www.w3.org/1999/xlink" x="0px" y="0px" viewBox="-108 148.3 226.8 85.2"
	 style="enable-background:new -108 148.3 226.8 85.2;" xml:space="preserve">
<style type="text/css">
	.st0{fill:url(#XMLID_2_);}
	.st1{fill:#FFCACA;}
	.st2{fill:#FFFFFF;}
	.st3{fill:url(#path9_1_);stroke:#000000;stroke-width:0.1404;stroke-opacity:0.18;}
	.st4{fill:url(#path11_1_);stroke:#000000;stroke-width:0.1404;stroke-opacity:0.18;}
	.st5{fill:url(#path13_1_);stroke:#000000;stroke-width:0.1404;stroke-opacity:0.18;}
	.st6{fill:url(#path15_1_);stroke:#000000;stroke-width:0.1404;stroke-opacity:0.18;}
	.st7{fill:url(#path17_1_);stroke:#000000;stroke-width:0.1404;stroke-opacity:0.18;}
	.st8{fill:url(#path19_1_);stroke:#000000;stroke-width:0.1404;stroke-opacity:0.18;}
	.st9{fill:url(#path21_1_);stroke:#000000;stroke-width:0.1404;stroke-opacity:0.18;}
	.st10{fill:url(#path23_1_);stroke:#000000;stroke-width:0.1404;stroke-opacity:0.18;}
	.st11{fill:url(#path25_1_);stroke:#000000;stroke-width:0.1404;stroke-opacity:0.18;}
	.st12{fill:url(#path27_1_);stroke:#000000;stroke-width:0.1404;stroke-opacity:0.18;}
	.st13{fill:url(#path29_1_);stroke:#000000;stroke-width:0.1404;stroke-opacity:0.18;}
	.st14{fill:url(#path31_1_);stroke:#000000;stroke-width:0.1404;stroke-opacity:0.18;}
	.st15{fill:url(#path33_1_);stroke:#000000;stroke-width:0.1404;stroke-opacity:0.18;}
	.st16{fill:url(#path35_1_);stroke:#000000;stroke-width:0.1404;stroke-opacity:0.18;}
	.st17{fill:url(#path37_1_);stroke:#000000;stroke-width:0.1404;stroke-opacity:0.18;}
	.st18{fill:url(#path39_1_);stroke:#000000;stroke-width:0.1404;stroke-opacity:0.18;}
	.st19{fill:url(#path41_1_);stroke:#000000;stroke-width:0.1404;stroke-opacity:0.18;}
</style>
<sodipodi:namedview  id="base" inkscape:window-width="1920" inkscape:window-height="1017" fit-margin-bottom="0" inkscape:pageopacity="0.0" inkscape:current-layer="layer1" fit-margin-right="0" inkscape:document-units="px" inkscape:window-x="-8" inkscape:pageshadow="2" inkscape:window-y="-8" inkscape:window-maximized="1" inkscape:zoom="1.4" inkscape:cx="126.60466" pagecolor="#ffffff" bordercolor="#666666" borderopacity="1.0" inkscape:cy="145.70435" fit-margin-top="0" units="px" showgrid="false" fit-margin-left="0">
	</sodipodi:namedview>
<radialGradient id="XMLID_2_" cx="28.2901" cy="409.1229" r="100.9042" gradientTransform="matrix(0.8332 0 0 -0.4999 -18.1845 395.4411)" gradientUnits="userSpaceOnUse">
	<stop  offset="0" style="stop-color:#FF7F9B;stop-opacity:0"/>
	<stop  offset="1" style="stop-color:#940004"/>
</radialGradient>
<path id="XMLID_63_" class="st0" d="M109.3,233.4H-98.6c-5.2,0-9.4-5.1-9.4-11.3v-62.4c0-6.3,4.2-11.3,9.4-11.3h207.9
	c5.2,0,9.4,5.1,9.4,11.3v62.4C118.8,228.4,114.5,233.4,109.3,233.4z"/>
<path id="XMLID_62_" class="st1" d="M104,228.4H-93.2c-4.7,0-8.6-4.7-8.6-10.4v-54.2c0-5.7,3.8-10.4,8.6-10.4H104
	c4.7,0,8.6,4.7,8.6,10.4V218C112.5,223.7,108.7,228.4,104,228.4z"/>
<g id="g3313" transform="translate(0,-1.443902e-6)">
	<path id="path2427" class="st2" d="M49.1,170.1c0-3-1-5.6-3.2-7.7c-2.1-2.1-4.7-3.2-7.7-3.2h-65.9c-3,0-5.6,1-7.7,3.2
		c-2.1,2.1-3.2,4.7-3.2,7.7v41.5c0,3,1.1,5.6,3.2,7.7c2.1,2.1,4.7,3.2,7.7,3.2h65.9c3,0,5.6-1.1,7.7-3.2c2.1-2.1,3.2-4.6,3.2-7.7
		V170.1L49.1,170.1z"/>
	<g id="g3" transform="matrix(1.0017248,0,0,1.0017248,0.5008624,0.3620653)">
		<g id="g5">
			<g id="g7">
				<linearGradient id="path9_1_" gradientUnits="userSpaceOnUse" x1="-38.7595" y1="190.3775" x2="48.8993" y2="190.3775">
					<stop  offset="0" style="stop-color:#F50033"/>
					<stop  offset="1" style="stop-color:#AB001C"/>
				</linearGradient>
				<path id="path9" class="st3" d="M48.7,169.7c0-3-1-5.6-3.2-7.7c-2.1-2.1-4.7-3.2-7.7-3.2h-65.8c-3,0-5.6,1-7.7,3.2
					c-2.1,2.1-3.2,4.7-3.2,7.7v41.4c0,3,1.1,5.6,3.2,7.6c2.1,2.1,4.7,3.2,7.7,3.2h65.8c3,0,5.6-1.1,7.7-3.2c2.1-2.1,3.2-4.6,3.2-7.6
					V169.7z M46.1,169.5v19.9h-82.1v-19.9c0-2.3,0.8-4.1,2.3-5.7c1.6-1.6,3.5-2.3,5.7-2.3H38c2.2,0,4.1,0.8,5.7,2.3
					C45.3,165.4,46.1,167.3,46.1,169.5z M36.3,200c0.6-0.8,1.3-1.3,2.1-1.6c1.7,1.2,3.3,2.9,4.9,5.1c-1.2,0.7-2,1.1-2.5,1.4
					l-1.3-1.6l-13.2,1.2l-0.5-2.7l2.9-0.1l3.1-5l3.5,0.8l-3.8,4.2l6.4-0.2C37.2,200.8,36.7,200.3,36.3,200L36.3,200z M27.5,212.5
					v-7.4h12.9v7.4h-2.7v-0.7h-7.5v0.7H27.5L27.5,212.5z M16.6,201.2h3.7v0.8h-3.7V201.2z M16,198.5v0.9h7.3v3.6h-2.1v-2.4H16v3.5
					h5.1v5.5H16v0.1c0,0.3,0.1,0.5,0.2,0.7c0.2,0.1,0.4,0.2,0.8,0.2h3.1c0.8,0,1.4-0.6,1.5-1.8l1.9,0.9c0,0.8-0.2,1.5-0.8,2
					c-0.5,0.5-1.1,0.7-1.7,0.7h-5c-0.9,0-1.6-0.2-1.9-0.8c-0.3-0.3-0.5-0.8-0.5-1.1l0-0.9h-3.3v0.9H8.2v-6.4h5.3v-3.5h-5v2.4H6.3
					v-3.6h7.2v-0.9H8v-1.6h14v1.6H16L16,198.5z M9.3,201.2H13v0.8H9.3V201.2z M13,202.7v0.9H9.3v-0.9H13z M20.3,202.7v0.9h-3.7v-0.9
					H20.3z M-2,198.1v-1.5h2.2v1.5h2.5v1.9H0.2v1.6h3.2v1.9h-3c0.3,0.7,0.8,1.3,1.6,1.7l2.3,1.2l-1.8,1.6c-0.4-0.2-1-0.6-1.7-1.3
					v2.3H-5v1.3h4.9c0.2,0,0.5-0.3,0.8-0.8c0.2-0.5,0.3-0.8,0.3-1.2l1.8,1.3c0,1.6-0.7,2.5-1.9,2.5h-5.5c-1.7,0-2.5-0.8-2.5-2.4
					v-2.8l-1.4,0.8l-0.4-0.8l-1.2,2.5c-0.4,0.8-1,1.7-1.9,2.7l-2.3-1.7c1.2-1.1,2.4-2.8,3.5-5l1.4,0.6l-0.1-0.2
					c1.4-0.4,2.5-1.2,3.1-2.3h-2.5v-1.9h3.1v-1.6h-2.4v-1.8h2.4v-1.5h2.2v1.5H-2L-2,198.1L-2,198.1z M-13.2,200.4
					c0.8,0,1.9,0.6,3.5,1.6l-1.3,1.8c-1.1-0.6-2.2-1-3.2-1.1L-13.2,200.4L-13.2,200.4z M-9.6,199.7l-2.8-1.4l1.1-1.9l2.8,1.5
					L-9.6,199.7L-9.6,199.7z M-23.5,199.1v1h7.3v1.9h-4.6l1.8,1.2c0.8,0.6,1.9,0.9,3.2,1.2c-0.1,0.2-0.7,0.8-1.7,1.7
					c-0.5-0.1-1.1-0.3-1.9-0.8v6.2h-2.4v-0.5h-6.6v0.5h-2.4v-6l-1.6,0.8l-1.7-1.6c0.8-0.2,1.8-0.8,3.3-1.6l1.6-1.1h-4.3v-1.9h7.3
					v-0.9l-5.3,0.1l-0.9-2.1l7.6-0.1l2.4-0.2c1-0.1,1.9-0.4,2.5-0.7l1.7,1.9c-1.4,0.6-2.8,0.9-4.2,0.9L-23.5,199.1L-23.5,199.1z"/>
				
					<linearGradient id="path11_1_" gradientUnits="userSpaceOnUse" x1="-163.9124" y1="543.8118" x2="-137.8598" y2="543.8118" gradientTransform="matrix(3.3647 0 0 -3.3647 512.7539 2005.1626)">
					<stop  offset="0" style="stop-color:#F50033"/>
					<stop  offset="1" style="stop-color:#AB001C"/>
				</linearGradient>
				<path id="path11" class="st4" d="M21.6,168.7h-3.7v5.2H8.1v-5.2H4.4v13.4h3.7v-5h9.8v5h3.7C21.6,182.1,21.6,168.7,21.6,168.7z"
					/>
				
					<linearGradient id="path13_1_" gradientUnits="userSpaceOnUse" x1="-163.9124" y1="543.8118" x2="-137.8598" y2="543.8118" gradientTransform="matrix(3.3647 0 0 -3.3647 512.7539 2005.1626)">
					<stop  offset="0" style="stop-color:#F50033"/>
					<stop  offset="1" style="stop-color:#AB001C"/>
				</linearGradient>
				<path id="path13" class="st5" d="M41.5,168.7h-4.8l-5.8,5.3h-2.5v-5.3h-3.7v13.4h3.7v-5H31l5.6,5h4.8l-7.4-6.6L41.5,168.7
					L41.5,168.7z"/>
				<linearGradient id="path15_1_" gradientUnits="userSpaceOnUse" x1="-38.7595" y1="175.3607" x2="48.8993" y2="175.3607">
					<stop  offset="0" style="stop-color:#F50033"/>
					<stop  offset="1" style="stop-color:#AB001C"/>
				</linearGradient>
				<path id="path15" class="st6" d="M-15.8,176.7c0.7-0.3,1.1-0.7,1.5-1.1c0.5-0.7,0.8-1.7,0.7-3c-0.1-2.7-1.4-4-4-4h-12.6v13.5h4
					v-3.7h6.6c1.3,0,1.9,0.6,1.9,1.7v2h3.8v-2.8C-13.9,177.9-14.5,177-15.8,176.7L-15.8,176.7z M-17.4,173.5c0,1.2-0.6,1.8-1.9,1.8
					h-7v-3.9h7c0.5,0,0.9,0.2,1.3,0.5C-17.5,172.5-17.4,172.9-17.4,173.5z"/>
				
					<linearGradient id="path17_1_" gradientUnits="userSpaceOnUse" x1="-163.9124" y1="543.8118" x2="-137.8598" y2="543.8118" gradientTransform="matrix(3.3647 0 0 -3.3647 512.7539 2005.1626)">
					<stop  offset="0" style="stop-color:#F50033"/>
					<stop  offset="1" style="stop-color:#AB001C"/>
				</linearGradient>
				<path id="path17" class="st7" d="M3,171.6v-2.9h-15.8v2.9h6v10.5H-3v-10.5H3L3,171.6z"/>
				
					<linearGradient id="path19_1_" gradientUnits="userSpaceOnUse" x1="-163.9124" y1="533.9818" x2="-137.8598" y2="533.9818" gradientTransform="matrix(3.3647 0 0 -3.3647 512.7539 2005.1626)">
					<stop  offset="0" style="stop-color:#F50033"/>
					<stop  offset="1" style="stop-color:#AB001C"/>
				</linearGradient>
				<path id="path19" class="st8" d="M30.2,207.3v2.5h7.5v-2.5H30.2z"/>
				
					<linearGradient id="path21_1_" gradientUnits="userSpaceOnUse" x1="-163.9124" y1="534.192" x2="-137.8598" y2="534.192" gradientTransform="matrix(3.3647 0 0 -3.3647 512.7539 2005.1626)">
					<stop  offset="0" style="stop-color:#F50033"/>
					<stop  offset="1" style="stop-color:#AB001C"/>
				</linearGradient>
				<path id="path21" class="st9" d="M13.5,207.4h-3.3v0.8h3.3V207.4z"/>
				
					<linearGradient id="path23_1_" gradientUnits="userSpaceOnUse" x1="-163.9124" y1="534.7315" x2="-137.8598" y2="534.7315" gradientTransform="matrix(3.3647 0 0 -3.3647 512.7539 2005.1626)">
					<stop  offset="0" style="stop-color:#F50033"/>
					<stop  offset="1" style="stop-color:#AB001C"/>
				</linearGradient>
				<path id="path23" class="st10" d="M13.5,206.3v-0.7h-3.3v0.7H13.5z"/>
				
					<linearGradient id="path25_1_" gradientUnits="userSpaceOnUse" x1="-163.9124" y1="534.192" x2="-137.8598" y2="534.192" gradientTransform="matrix(3.3647 0 0 -3.3647 512.7539 2005.1626)">
					<stop  offset="0" style="stop-color:#F50033"/>
					<stop  offset="1" style="stop-color:#AB001C"/>
				</linearGradient>
				<path id="path25" class="st11" d="M19,207.4H16v0.8H19V207.4z"/>
				
					<linearGradient id="path27_1_" gradientUnits="userSpaceOnUse" x1="-163.9124" y1="534.7315" x2="-137.8598" y2="534.7315" gradientTransform="matrix(3.3647 0 0 -3.3647 512.7539 2005.1626)">
					<stop  offset="0" style="stop-color:#F50033"/>
					<stop  offset="1" style="stop-color:#AB001C"/>
				</linearGradient>
				<path id="path27" class="st12" d="M19,206.3v-0.7H16v0.7H19z"/>
				
					<linearGradient id="path29_1_" gradientUnits="userSpaceOnUse" x1="-163.9124" y1="536.2869" x2="-137.8598" y2="536.2869" gradientTransform="matrix(3.3647 0 0 -3.3647 512.7539 2005.1626)">
					<stop  offset="0" style="stop-color:#F50033"/>
					<stop  offset="1" style="stop-color:#AB001C"/>
				</linearGradient>
				<path id="path29" class="st13" d="M-2,201.5v-1.6h-1.7v1.6H-2z"/>
				
					<linearGradient id="path31_1_" gradientUnits="userSpaceOnUse" x1="-163.9124" y1="534.5283" x2="-137.8598" y2="534.5283" gradientTransform="matrix(3.3647 0 0 -3.3647 512.7539 2005.1626)">
					<stop  offset="0" style="stop-color:#F50033"/>
					<stop  offset="1" style="stop-color:#AB001C"/>
				</linearGradient>
				<path id="path31" class="st14" d="M-4.8,205.9v1.4h3.3v-1.4H-4.8z"/>
				
					<linearGradient id="path33_1_" gradientUnits="userSpaceOnUse" x1="-163.9124" y1="535.3621" x2="-137.8598" y2="535.3621" gradientTransform="matrix(3.3647 0 0 -3.3647 512.7539 2005.1626)">
					<stop  offset="0" style="stop-color:#F50033"/>
					<stop  offset="1" style="stop-color:#AB001C"/>
				</linearGradient>
				<path id="path33" class="st15" d="M-1.9,203.4h-1.8l-0.5,0.9h2.7L-1.9,203.4z"/>
				
					<linearGradient id="path35_1_" gradientUnits="userSpaceOnUse" x1="-163.9124" y1="535.4601" x2="-137.8598" y2="535.4601" gradientTransform="matrix(3.3647 0 0 -3.3647 512.7539 2005.1626)">
					<stop  offset="0" style="stop-color:#F50033"/>
					<stop  offset="1" style="stop-color:#AB001C"/>
				</linearGradient>
				<path id="path35" class="st16" d="M-25.9,204.6v-2.1c-0.7,0.7-1.7,1.4-3,2.1H-25.9z"/>
				
					<linearGradient id="path37_1_" gradientUnits="userSpaceOnUse" x1="-163.9124" y1="534.4863" x2="-137.8598" y2="534.4863" gradientTransform="matrix(3.3647 0 0 -3.3647 512.7539 2005.1626)">
					<stop  offset="0" style="stop-color:#F50033"/>
					<stop  offset="1" style="stop-color:#AB001C"/>
				</linearGradient>
				<path id="path37" class="st17" d="M-28.2,206.3v0.9h6.6v-0.9H-28.2z"/>
				
					<linearGradient id="path39_1_" gradientUnits="userSpaceOnUse" x1="-163.9124" y1="533.7716" x2="-137.8598" y2="533.7716" gradientTransform="matrix(3.3647 0 0 -3.3647 512.7539 2005.1626)">
					<stop  offset="0" style="stop-color:#F50033"/>
					<stop  offset="1" style="stop-color:#AB001C"/>
				</linearGradient>
				<path id="path39" class="st18" d="M-28.2,208.8v0.8h6.6v-0.8H-28.2z"/>
				
					<linearGradient id="path41_1_" gradientUnits="userSpaceOnUse" x1="-163.9124" y1="535.4812" x2="-137.8598" y2="535.4812" gradientTransform="matrix(3.3647 0 0 -3.3647 512.7539 2005.1626)">
					<stop  offset="0" style="stop-color:#F50033"/>
					<stop  offset="1" style="stop-color:#AB001C"/>
				</linearGradient>
				<path id="path41" class="st19" d="M-23.5,204.6h2.9l-0.7-0.4c-0.9-0.6-1.7-1.2-2.3-1.9V204.6L-23.5,204.6z"/>
			</g>
		</g>
	</g>
</g>
</svg>
