<?xml version="1.0" encoding="utf-8"?>
<!-- Generator: Adobe Illustrator 19.0.0, SVG Export Plug-In . SVG Version: 6.00 Build 0)  -->
<svg version="1.1" id="圖層_1" xmlns="http://www.w3.org/2000/svg" xmlns:xlink="http://www.w3.org/1999/xlink" x="0px" y="0px"
	 viewBox="-111.4 -35.4 226.8 85" style="enable-background:new -111.4 -35.4 226.8 85;" xml:space="preserve">
<style type="text/css">
	.st0{fill:url(#XMLID_4_);}
	.st1{fill:#0D3500;}
	.st2{fill:#FFFFFF;}
	.st3{fill:#CC3300;}
</style>
<g id="XMLID_1_">
</g>
<g id="XMLID_124_">
</g>
<g id="XMLID_125_">
</g>
<g id="XMLID_126_">
</g>
<g id="XMLID_127_">
</g>
<g id="XMLID_128_">
</g>
<radialGradient id="XMLID_4_" cx="23.4222" cy="26.8896" r="100.9042" gradientTransform="matrix(0.8332 0 0 -0.4999 -17.5172 20.6087)" gradientUnits="userSpaceOnUse">
	<stop  offset="0.2193" style="stop-color:#E4BFFF;stop-opacity:0"/>
	<stop  offset="1" style="stop-color:#79AA00"/>
</radialGradient>
<path id="XMLID_63_" class="st0" d="M105.9,49.7H-102c-5.2,0-9.4-5.1-9.4-11.3V-24c0-6.3,4.2-11.3,9.4-11.3h207.9
	c5.2,0,9.4,5.1,9.4,11.3v62.4C115.4,44.6,111.2,49.7,105.9,49.7z"/>
<path id="XMLID_62_" class="st1" d="M100.6,44.6H-96.6c-4.7,0-8.6-4.7-8.6-10.4v-54.2c0-5.7,3.8-10.4,8.6-10.4h197.1
	c4.7,0,8.6,4.7,8.6,10.4v54.2C109.1,40,105.3,44.6,100.6,44.6z"/>
<g id="XMLID_48_">
	<path id="XMLID_49_" class="st2" d="M-10.4-7.1c-0.5,0.5-1.2,0.8-1.9,0.8h-6.1V9.6H-21v-23c0-0.8,0.2-1.5,0.7-2
		c0.5-0.5,1.2-0.8,2.1-0.8h5.9c0.7,0,1.4,0.3,1.8,0.8c0.5,0.4,0.7,1.1,0.7,1.7v5C-9.8-8-10.1-7.5-10.4-7.1z M-12.5-13.4
		c0-0.4-0.4-0.6-0.7-0.6h-4.5c-0.3,0-0.7,0.2-0.7,0.6v1.2h5.9V-13.4z M-12.5-10.2h-5.9v1.9h5.2c0.5,0,0.8-0.2,0.8-0.7V-10.2z
		 M-3.6,2.2v6.5h-2.7V2.2h-4.4c-0.5,2.4-1.6,4.4-3.5,6.5h-3.4c2.6-2.5,3.5-4.2,4.1-6.5h-3.5v-2h3.7c0.1-1,0.2-2.4,0.1-3.3H-16v-2
		h15.1v2h-2.7v3.3h3.7v2H-3.6z M-6.3-3.2h-4.1c0,0.9,0,2.3-0.1,3.3h4.2V-3.2z M3.5,8.8c-0.5,0.5-1.3,0.8-2,0.8h-3.7l-0.8-2.1h3.8
		c0.5,0,0.8-0.3,0.8-0.8v-13h-6.3c-0.5,0-1.1-0.3-1.5-0.7C-6.7-7.4-7-8.1-7-8.7v-5.2c0-0.7,0.3-1.3,0.7-1.7c0.5-0.4,1.1-0.6,1.8-0.6
		H2c0.5,0,1.1,0.3,1.6,0.8c0.4,0.4,0.6,1,0.6,1.6v21C4.1,7.8,3.9,8.4,3.5,8.8z M1.5-13.4c0-0.3-0.3-0.6-0.7-0.6h-4.6
		c-0.4,0-0.7,0.2-0.7,0.6v1.2h5.9V-13.4z M1.5-10.2h-5.9v1.1c0,0.4,0.3,0.8,0.7,0.8h5.2V-10.2z"/>
	<path id="XMLID_58_" class="st2" d="M22.9,5.7v3.9h-2.7V5.7H8.6v-2h11.6V1.4h-7.1c-1,0-1.7-0.2-2.3-0.7S10-0.5,10-1.5v-5.4
		c0-1,0.3-1.8,0.8-2.3c0.5-0.4,1.2-0.7,2.2-0.7h7.2v-2.3H8.9v-2h11.3v-2.4h2.7v2.4h11.4v2H22.9v2.3H30c1,0,1.8,0.3,2.3,0.7
		c0.6,0.5,0.9,1.3,0.9,2.3v5.2c0,0.9-0.2,1.6-0.7,2.1c-0.5,0.6-1.4,1-2.5,1h-7.2v2.3h11.8v2H22.9z M20.2-8h-6.6
		c-0.5,0-0.9,0.5-0.9,1v1.9h7.5V-8z M20.2-3.1h-7.5v1.7c0,0.4,0.6,0.9,0.9,0.9h6.6V-3.1z M30.5-7.1c0-0.5-0.4-0.9-1-0.9h-6.7v2.9
		h7.6V-7.1z M30.5-3.1h-7.6v2.6h6.8c0.5,0,0.9-0.5,0.9-0.9V-3.1z"/>
	<path id="XMLID_66_" class="st2" d="M46.6,6.1c-0.5,0.4-1.2,0.7-2,0.7h-3.3c-0.6,0-1.1-0.3-1.6-0.8c-0.5-0.5-0.7-1-0.7-1.6v-17.4
		c0-0.8,0.3-1.3,0.8-1.7c0.5-0.4,1-0.5,1.7-0.5h3.4c0.6,0,1.2,0.2,1.6,0.6c0.4,0.4,0.7,1,0.7,1.7V4.6C47.2,5.2,47,5.7,46.6,6.1z
		 M44.7-12.5c0-0.3-0.2-0.6-0.6-0.6h-1.9c-0.4,0-0.5,0.3-0.5,0.6v7.1h3.1V-12.5z M44.7-3.1h-3.1V4c0,0.3,0.3,0.7,0.6,0.7h2
		c0.3,0,0.5-0.2,0.5-0.6V-3.1z M61.6-0.1v6.9c0,0.7-0.3,1.5-0.9,2.1c-0.5,0.4-1.1,0.7-2,0.7h-2.9l-0.9-2h3.2c0.4,0,0.6-0.3,0.6-0.7
		v-7H48.2v-2.1h10.6v-2.2h2.8v2.2h3v2.1H61.6z M48.5-5.5v-2.1H55v-3.8h-5.7v-2.1H55v-3.1h2.8v3.1h5.4v2.1h-5.4v3.8h6.5v2.1H48.5z
		 M53.2,5.5c-1.3-1.5-2.5-3.1-3.5-4.7h3.4c1,1.6,2.5,3.3,4,4.7H53.2z"/>
	<path id="XMLID_73_" class="st2" d="M79.5-6.6c-0.5,0.5-1,0.8-1.7,0.8h-6.3V9.6h-2.7v-23.4c0-0.6,0.3-1.2,0.8-1.6
		c0.5-0.4,1.1-0.7,1.8-0.7h6.3c0.7,0,1.4,0.3,1.9,1c0.3,0.4,0.5,1,0.5,1.8v5.2C80.2-7.6,80-7,79.5-6.6z M77.5-13.3
		c0-0.4-0.3-0.8-0.8-0.8h-4.3c-0.5,0-0.9,0.2-0.9,0.7v1.5h5.9V-13.3z M77.5-10h-5.9v2.2h5c0.5,0,0.9-0.4,0.9-0.9V-10z M87.8,7.1
		c-0.5,0.5-1.2,0.8-2,0.8h-8.4c-0.7,0-1.3-0.2-1.7-0.6c-0.5-0.5-0.8-1.1-0.8-1.8v-7.8c0-0.7,0.3-1.3,0.8-1.7
		c0.5-0.4,1.2-0.7,1.8-0.7h8.5c0.6,0,1.4,0.2,2,0.8c0.4,0.5,0.7,1,0.7,1.9v7.4C88.4,6.1,88.2,6.6,87.8,7.1z M85.8-2
		c0-0.4-0.4-0.8-0.8-0.8h-6.8c-0.4,0-0.8,0.4-0.8,0.7v2.6h8.4V-2z M85.8,2.5h-8.4v2.6c0,0.4,0.4,0.8,0.8,0.8h6.9
		c0.5,0,0.8-0.3,0.8-0.7V2.5z M93.5,8.9c-0.5,0.4-1.2,0.6-2,0.6h-3.1l-0.9-2h3.2c0.4,0,0.8-0.3,0.8-0.8V-5.8h-6
		c-0.7,0-1.3-0.2-1.7-0.5c-0.6-0.4-0.9-1.1-0.9-2v-5.4c0-0.7,0.3-1.2,0.7-1.6c0.5-0.5,1.2-0.8,1.8-0.8h6.6c0.6,0,1.3,0.3,1.7,0.9
		c0.4,0.4,0.6,1,0.6,1.7V7.4C94.2,8,93.9,8.6,93.5,8.9z M91.5-13.5c0-0.3-0.3-0.7-0.7-0.7h-4.4c-0.5,0-0.8,0.3-0.8,0.7v1.5h5.9
		V-13.5z M91.5-10h-5.9v1.4c0,0.4,0.4,0.8,0.8,0.8h5.1V-10z"/>
</g>
<g id="XMLID_2_">
	<path id="XMLID_5_" class="st2" d="M-3.8,27.9C-4,28.6-4.5,29.2-5,29.6c-0.6,0.5-1.3,0.7-2.1,0.7h-3.2c-0.4,0-0.7-0.1-1-0.3
		c-0.2-0.2-0.3-0.5-0.3-0.8v-7.7c0-0.3,0.1-0.6,0.3-0.8c0.2-0.2,0.5-0.3,0.9-0.3h3.6c0.6,0,1.2,0.2,1.7,0.5c0.5,0.4,1,0.9,1.3,1.5
		c0.3,0.8,0.5,1.7,0.5,2.6C-3.4,25.9-3.5,26.9-3.8,27.9z M-5,22.7c-0.2-0.5-0.6-0.9-1.1-1.2c-0.4-0.2-0.9-0.3-1.5-0.3H-10
		c-0.2,0-0.4,0.2-0.4,0.4V29c0,0.2,0.2,0.4,0.4,0.4h2.6c0.5,0,1.1-0.2,1.5-0.6c0.4-0.4,0.7-0.9,0.9-1.4c0.2-0.6,0.2-1.8,0.2-2.5
		C-4.6,24.1-4.7,23.4-5,22.7z"/>
	<path id="XMLID_9_" class="st2" d="M3,30c-0.6,0.4-1.6,0.5-2.4,0.4C-0.2,30.4-1,30-1.6,29.3c-0.5-0.7-0.8-1.7-0.8-2.6
		c0-0.8,0.2-1.6,0.6-2.2c0.6-1,1.7-1.5,2.8-1.5c1,0,1.8,0.3,2.4,1c0.5,0.6,0.8,1.6,0.8,2.4c0,0.5-0.3,0.7-0.8,0.7H-1
		c0.1,0.9,0.4,1.7,1,2.2c0.4,0.3,0.9,0.4,1.4,0.4c0.4,0,0.8-0.2,1.1-0.4C2.7,28.8,2.9,28.3,3,28h1.4C4.2,28.7,3.7,29.6,3,30z
		 M2.3,24.2c-0.6-0.4-1.4-0.4-2-0.2C-0.6,24.3-1,25.2-1,25.9h3.7c0.2,0,0.3-0.2,0.3-0.3C3,25.1,2.7,24.5,2.3,24.2z"/>
	<path id="XMLID_12_" class="st2" d="M10.6,30c-0.5,0.3-1.2,0.5-1.8,0.4C8.1,30.3,7.4,30,7,29.4v3.8H5.7V23.1H7v1.1
		c0.4-0.6,0.9-1,1.6-1.1c0.7-0.1,1.4,0,2,0.4c0.6,0.4,1,0.9,1.2,1.6c0.4,1.1,0.5,2.5,0,3.6C11.6,29.1,11.2,29.7,10.6,30z M10.4,24.8
		c-0.3-0.4-0.8-0.8-1.3-0.9c-0.6-0.1-1.2,0.2-1.5,0.7c-0.8,1.1-0.7,2.7-0.2,3.9c0.3,0.6,0.9,1,1.6,1c0.6,0,1.2-0.5,1.4-1
		C11,27.4,11,25.9,10.4,24.8z"/>
	<path id="XMLID_20_" class="st2" d="M18.6,30.3c-0.1-0.3-0.2-0.7-0.3-1c-0.6,0.6-1.4,1-2.3,1.1c-0.6,0.1-1.3,0-1.8-0.3
		c-0.5-0.3-0.8-0.6-1-1.1c-0.2-0.5-0.2-1.1,0-1.6c0.2-0.6,0.7-1,1.3-1.2c0.5-0.2,1.2-0.3,1.8-0.3c0.7-0.1,1.4-0.3,1.8-0.7
		c0-0.3,0-0.7-0.3-1c-0.3-0.3-0.6-0.4-1-0.4c-0.5-0.1-1.1,0-1.6,0.2c-0.5,0.2-0.7,0.6-0.9,1.1h-1.3c0.1-0.8,0.7-1.5,1.5-1.8
		c0.6-0.3,1.6-0.4,2.2-0.4c0.7,0,1.5,0.2,2,0.8c0.4,0.4,0.6,1,0.6,1.7c0,0.9,0,2.1,0,2.8c0,0.7,0.2,1.6,0.5,2.1H18.6z M18.2,26.5
		c-0.5,0.3-1.1,0.5-1.6,0.5c-0.5,0-1,0.1-1.3,0.2c-0.3,0.1-0.5,0.3-0.7,0.6c-0.1,0.3-0.1,0.6,0,1c0.1,0.3,0.4,0.5,0.7,0.6
		c0.3,0.1,0.6,0.1,0.9,0c0.9-0.1,1.6-0.6,2.1-1.3C18.2,27.6,18.2,26.9,18.2,26.5z"/>
	<path id="XMLID_23_" class="st2" d="M23.9,24.1c-0.4-0.1-0.7,0.1-1,0.4c-0.4,0.4-0.6,1-0.7,1.5v4.3H21V23h1.2V24
		c0.2-0.4,0.8-0.9,1.3-1c0.5-0.1,1.1,0.1,1.6,0.4v1.4C24.8,24.5,24.3,24.2,23.9,24.1z"/>
	<path id="XMLID_25_" class="st2" d="M28.9,30.3h-1.1c-0.4,0-0.7-0.1-0.9-0.3c-0.2-0.2-0.3-0.5-0.3-0.9V24h-1v-1h1v-2.7h1.2V23h1.4
		v1h-1.4v5c0,0.2,0.2,0.4,0.4,0.4h1.2L28.9,30.3z"/>
	<path id="XMLID_27_" class="st2" d="M35.2,30.3v-0.9c-0.4,0.6-1,0.9-1.7,1c-0.7,0.1-1.5,0-2.1-0.4c-0.6-0.4-0.9-1.1-0.9-2v-5h1.3
		v5.1c0,0.4,0.2,0.9,0.6,1.1c0.4,0.2,0.8,0.2,1.2,0.1c0.7-0.2,1.4-0.8,1.7-1.4v-5h1.3l0,7.3H35.2z"/>
	<path id="XMLID_33_" class="st2" d="M40.8,24.1c-0.4-0.1-0.7,0.1-1,0.4c-0.4,0.4-0.6,1-0.7,1.5v4.3h-1.2V23h1.2V24
		c0.2-0.4,0.8-0.9,1.3-1c0.5-0.1,1.1,0.1,1.6,0.4v1.4C41.7,24.5,41.2,24.2,40.8,24.1z"/>
	<path id="XMLID_35_" class="st2" d="M48.2,30c-0.6,0.4-1.6,0.5-2.4,0.4c-0.9-0.1-1.7-0.4-2.2-1.2c-0.5-0.7-0.8-1.7-0.8-2.6
		c0-0.8,0.2-1.6,0.6-2.2c0.6-1,1.7-1.5,2.8-1.5c1,0,1.8,0.3,2.4,1c0.5,0.6,0.8,1.6,0.8,2.4c0,0.5-0.3,0.7-0.8,0.7h-4.5
		c0.1,0.9,0.4,1.7,1,2.2c0.4,0.3,0.9,0.4,1.4,0.4c0.4,0,0.8-0.2,1.1-0.4c0.3-0.3,0.5-0.7,0.5-1.1h1.4C49.3,28.7,48.9,29.6,48.2,30z
		 M47.4,24.2c-0.6-0.4-1.4-0.4-2-0.2c-0.8,0.3-1.2,1.1-1.3,1.9h3.7c0.2,0,0.3-0.2,0.3-0.3C48.2,25.1,47.8,24.5,47.4,24.2z"/>
	<path id="XMLID_38_" class="st2" d="M58.9,21.3v9h-1.3v-9h-3.5v-1h8.2v1H58.9z"/>
	<path id="XMLID_40_" class="st2" d="M63.9,21.6v-1.3h1.3v1.3H63.9z M63.9,30.3V23h1.3v7.3H63.9z"/>
	<path id="XMLID_43_" class="st2" d="M76,30.3v-5.1c0-0.4-0.1-0.9-0.4-1.1c-0.4-0.3-1-0.3-1.5-0.2c-0.6,0.2-1,0.6-1.3,1.1v5.3h-1.2
		v-5.1c0-0.5-0.3-1.1-0.8-1.3c-0.5-0.2-1-0.1-1.4,0.2c-0.5,0.3-0.8,0.7-0.9,1.3v5h-1.2V23h1.2v0.9c0.4-0.5,0.8-0.8,1.4-1
		c0.5-0.1,1.1-0.1,1.6,0.1c0.4,0.2,0.8,0.5,1.1,0.9c0.5-0.6,1.1-0.9,1.9-1c0.8-0.1,1.6,0,2.2,0.5c0.5,0.4,0.6,1,0.6,1.8v5.1H76z"/>
	<path id="XMLID_45_" class="st2" d="M83.8,30c-0.6,0.4-1.6,0.5-2.4,0.4c-0.9-0.1-1.7-0.4-2.2-1.2c-0.5-0.7-0.8-1.7-0.8-2.6
		c0-0.8,0.2-1.6,0.6-2.2c0.6-1,1.7-1.5,2.8-1.5c1,0,1.8,0.3,2.4,1c0.5,0.6,0.8,1.6,0.8,2.4c0,0.5-0.3,0.7-0.8,0.7h-4.5
		c0.1,0.9,0.4,1.7,1,2.2c0.4,0.3,0.9,0.4,1.4,0.4c0.4,0,0.8-0.2,1.1-0.4c0.3-0.3,0.5-0.7,0.5-1.1h1.4C84.9,28.7,84.5,29.6,83.8,30z
		 M83,24.2c-0.6-0.4-1.4-0.4-2-0.2c-0.8,0.3-1.2,1.1-1.3,1.9h3.7c0.2,0,0.3-0.2,0.3-0.3C83.7,25.1,83.4,24.5,83,24.2z"/>
</g>
<g id="XMLID_30_">
	<circle id="XMLID_28_" class="st3" cx="-64.1" cy="7.2" r="29.5"/>
	<g id="XMLID_31_" transform="translate(-15,65)">
		<desc>
			Path points for the bus obtained at http://commons.wikimedia.org/wiki/Image:Aiga_bus.svg by http://commons.wikimedia.org/wiki/User:Rfc1394 who vectorized the original icon designed by AIGA at http://www.aiga.org/content.cfm/symbol-signs.
Both images were released under Public Domain.
			</desc>
		<path id="XMLID_18_" class="st3" d="M-63.7-67l1.8-6.8l3.9-3.9l19.3,0.1l3.1,3.8l2.2,7.4l0.3,19.2l-30.5-1L-63.7-67z"/>
		<path id="XMLID_32_" class="st2" d="M-61.7-37.7c-0.4-0.2-0.9-0.7-1.2-1.2c-0.2-0.4-0.2-0.6-0.2-2.2c0-1.2-0.1-1.8-0.2-1.8
			c-0.1,0-0.7-0.1-1.5-0.1l-1.4,0l0-9.2l0-9.2l0.9-6.4c0.5-3.5,0.9-6.6,1-6.9c0.2-0.7,0.9-1.6,1.5-2.2c0.7-0.5,2.4-1.4,3.5-1.8
			c1-0.3,2.9-0.8,4.6-1.1c4.4-0.8,8.1-0.8,12.8,0.1c5.4,1,8,2.5,8.8,4.8c0.1,0.4,0.5,2.7,1,7.1l0.8,6.4v9.2v9.2l-1.3,0
			c-0.7,0-1.4,0-1.4,0.1c-0.1,0-0.1,0.6-0.2,1.8c0,2-0.1,2.3-0.8,2.9c-1.3,1.2-3.6,0.6-4.1-1c-0.1-0.2-0.1-1.1-0.1-2
			c0-1.3,0-1.6-0.2-1.7c-0.1-0.1-1.1-0.2-9.4-0.2s-9.3,0-9.4,0.2c-0.1,0.1-0.2,0.4-0.2,1.8c0,1.5,0,1.7-0.2,2.1
			c-0.3,0.6-0.5,0.9-1.1,1.1C-60.1-37.5-61.2-37.5-61.7-37.7z M-59.8-48.7c0.9-0.3,1.6-1.3,1.6-2.3c0-1.4-1-2.4-2.4-2.4
			c-0.7,0-1.1,0.2-1.6,0.6c-0.6,0.5-0.8,1-0.8,1.8c0,0.8,0.2,1.3,0.7,1.7C-61.7-48.7-60.6-48.4-59.8-48.7z M-35.5-48.9
			c1.8-0.9,1.8-3.4,0-4.3c-1.3-0.6-2.8-0.1-3.3,1.2c-0.2,0.5-0.2,1.5,0.1,2C-38.2-48.7-36.7-48.2-35.5-48.9z M-35.3-59.6
			c0.3-0.1,0.6-0.2,0.7-0.3c0.2-0.2,0.4-1,0.4-1.4c0-0.2-0.3-2.5-0.7-5.2c-0.7-5-0.8-5.4-1.3-5.8c-0.5-0.5-0.3-0.4-12.4-0.5
			c-8.2,0-11.5,0-11.8,0.1c-0.6,0.1-1,0.6-1.2,1.2c-0.2,0.9-1.5,10.5-1.5,10.9c0.1,0.5,0.5,0.9,1,1C-61.3-59.5-35.9-59.5-35.3-59.6z
			 M-41.2-75c0.5-0.1,0.7-0.4,0.8-0.8c0.1-0.4-0.2-1-0.5-1.1c-0.2-0.1-2.4-0.1-7.8-0.1c-7,0-7.6,0-7.8,0.2c-0.5,0.4-0.6,0.9-0.2,1.5
			c0.1,0.2,0.3,0.3,0.5,0.4c0.2,0,0.3,0.1,0.4,0.1C-55.6-74.9-41.5-74.9-41.2-75z"/>
	</g>
</g>
</svg>
